<?xml version="1.0" encoding="UTF-8"?>
<svg width="1600" height="320" viewBox="0 0 1600 320" fill="none" xmlns="http://www.w3.org/2000/svg">
  <defs>
    <linearGradient id="g1" x1="0" y1="0" x2="1" y2="1">
      <stop offset="0%" stop-color="#e0f2fe"/>
      <stop offset="100%" stop-color="#fff7ed"/>
    </linearGradient>
    <radialGradient id="blobPink" cx="0" cy="0" r="1" gradientUnits="userSpaceOnUse" gradientTransform="translate(1200 120) rotate(45) scale(220 140)">
      <stop stop-color="#ffe4e6"/>
      <stop offset="1" stop-color="#ffe4e6" stop-opacity="0"/>
    </radialGradient>
    <radialGradient id="blobBlue" cx="0" cy="0" r="1" gradientUnits="userSpaceOnUse" gradientTransform="translate(320 180) rotate(-30) scale(260 160)">
      <stop stop-color="#e0f2fe"/>
      <stop offset="1" stop-color="#e0f2fe" stop-opacity="0"/>
    </radialGradient>
    <radialGradient id="blobYellow" cx="0" cy="0" r="1" gradientUnits="userSpaceOnUse" gradientTransform="translate(820 160) rotate(0) scale(220 120)">
      <stop stop-color="#fef9c3"/>
      <stop offset="1" stop-color="#fef9c3" stop-opacity="0"/>
    </radialGradient>
  </defs>
  <rect width="1600" height="320" fill="url(#g1)"/>

  <!-- soft blobs -->
  <ellipse cx="1200" cy="130" rx="260" ry="160" fill="url(#blobPink)"/>
  <ellipse cx="320" cy="190" rx="300" ry="180" fill="url(#blobBlue)"/>
  <ellipse cx="820" cy="170" rx="260" ry="150" fill="url(#blobYellow)"/>

  <!-- clouds -->
  <g fill="#ffffff" opacity="0.7">
    <path d="M170 230c-12-22 6-48 30-48 3-20 22-35 43-33 12-26 49-31 67-8 21-9 46 1 54 22 21-1 38 16 37 36h-231z"/>
    <path d="M1280 210c-10-18 6-40 28-39 5-16 23-28 41-25 10-20 41-24 57-6 18-7 39 1 45 17 18-1 33 13 32 30h-203z"/>
  </g>

  <!-- confetti dots -->
  <g opacity="0.35">
    <circle cx="140" cy="70" r="4" fill="#60a5fa"/>
    <circle cx="220" cy="110" r="3" fill="#f472b6"/>
    <circle cx="540" cy="70" r="4" fill="#facc15"/>
    <circle cx="980" cy="70" r="4" fill="#93c5fd"/>
    <circle cx="1060" cy="120" r="3" fill="#86efac"/>
    <circle cx="1480" cy="80" r="4" fill="#c4b5fd"/>
  </g>
</svg>
